HIERARCHY
ROOT Hips
{
	OFFSET 0.00000 0.00000 0.00000
	CHANNELS 6 Xposition Yposition Zposition Zrotation Yrotation Xrotation 
	JOINT LHipJoint
	{
		OFFSET 0 0 0
		CHANNELS 3 Zrotation Yrotation Xrotation
		JOINT LeftHip
		{
			OFFSET 1.62329 -1.80800 0.67318
			CHANNELS 3 Zrotation Yrotation Xrotation
			JOINT LeftKnee
			{
				OFFSET 2.57139 -7.06484 0.00000
				CHANNELS 3 Zrotation Yrotation Xrotation
				JOINT LeftAnkle
				{
					OFFSET 2.52017 -6.92413 0.00000
					CHANNELS 3 Zrotation Yrotation Xrotation
					JOINT LeftToe
					{
						OFFSET 0.23295 -0.64001 2.10214
						CHANNELS 3 Zrotation Yrotation Xrotation
						End Site
						{
							OFFSET 0.00000 -0.00000 1.10139
						}
					}
				}
			}
		}
	}
	JOINT RHipJoint
	{
		OFFSET 0 0 0
		CHANNELS 3 Zrotation Yrotation Xrotation
		JOINT RightHip
		{
			OFFSET -1.48061 -1.80800 0.67318
			CHANNELS 3 Zrotation Yrotation Xrotation
			JOINT RightKnee
			{
				OFFSET -2.63258 -7.23296 0.00000
				CHANNELS 3 Zrotation Yrotation Xrotation
				JOINT RightAnkle
				{
					OFFSET -2.54779 -7.00000 0.00000
					CHANNELS 3 Zrotation Yrotation Xrotation
					JOINT RightToe
					{
						OFFSET -0.23067 -0.63376 2.12161
						CHANNELS 3 Zrotation Yrotation Xrotation
						End Site
						{
							OFFSET -0.00000 -0.00000 1.11000
						}
					}
				}
			}
		}
	}
	JOINT lowerback
	{
		OFFSET 0 0 0
		CHANNELS 3 Zrotation Yrotation Xrotation
		JOINT Chest
		{
			OFFSET -0.02108 2.07573 -0.16981
			CHANNELS 3 Zrotation Yrotation Xrotation
			JOINT Chest2
			{
				OFFSET 0.05070 2.08439 -0.03141
				CHANNELS 3 Zrotation Yrotation Xrotation
				JOINT lowerneck
				{
					OFFSET 0 0 0
					CHANNELS 3 Zrotation Yrotation Xrotation
					JOINT Neck
					{
						OFFSET -0.10731 1.60408 0.31370
						CHANNELS 3 Zrotation Yrotation Xrotation
						JOINT Head
						{
							OFFSET 0.08411 1.65679 -0.30822
							CHANNELS 3 Zrotation Yrotation Xrotation
							End Site
							{
								OFFSET 0.03911 1.69149 -0.14146
							}
						}
					}
				}
				JOINT LeftCollar
				{
					OFFSET 0 0 0
					CHANNELS 3 Zrotation Yrotation Xrotation
					JOINT LeftShoulder
					{
						OFFSET 3.52315 0.73219 -0.54694
CHANNELS 3 Zrotation Xrotation Yrotation
						JOINT LeftElbow
						{
OFFSET 0 -5.324620 -0.000000
CHANNELS 3 Zrotation Xrotation Yrotation
							JOINT LeftWrist
							{
OFFSET 0 -3.484020 -0.000000
CHANNELS 3 Zrotation Xrotation Yrotation
								JOINT lhand
								{
									OFFSET 0 0 0
CHANNELS 3 Zrotation Xrotation Yrotation
									JOINT LFingers
									{
OFFSET 0 -0.572480 -0.000000
CHANNELS 3 Zrotation Xrotation Yrotation
										End Site
										{
OFFSET 0 -0.461540 -0.000000
										}
									}
								}
								JOINT LThumb
								{
OFFSET 0 0.000000 0.000000
CHANNELS 3 Zrotation Xrotation Yrotation
									End Site
									{
OFFSET 0 -0.468590 0.468590
									}
								}
							}
						}
					}
				}
				JOINT RightCollar
				{
					OFFSET 0 0 0
					CHANNELS 3 Zrotation Yrotation Xrotation
					JOINT RightShoulder
					{
						OFFSET -3.41766 0.93592 -0.10019
CHANNELS 3 Zrotation Xrotation Yrotation
						JOINT RightElbow
						{
OFFSET 0 -5.335890 -0.000000
CHANNELS 3 Zrotation Xrotation Yrotation
							JOINT RightWrist
							{
OFFSET 0 -3.641340 -0.000000
CHANNELS 3 Zrotation Xrotation Yrotation
								JOINT rhand
								{
									OFFSET 0 0 0
CHANNELS 3 Zrotation Xrotation Yrotation
									JOINT RFingers
									{
OFFSET 0 -0.734810 -0.000000
CHANNELS 3 Zrotation Xrotation Yrotation
										End Site
										{
OFFSET 0 -0.592420 -0.000000
										}
									}
								}
								JOINT RThumb
								{
OFFSET 0 0.000000 0.000000
CHANNELS 3 Zrotation Xrotation Yrotation
									End Site
									{
OFFSET 0 -0.601470 0.601470
									}
								}
							}
						}
					}
				}
			}
		}
	}
}
MOTION
Frames: 8
Frame Time: 0.008333333333333333
-1.839952 17.762722 -4.964678 -282.321659 92.173163 -276.218506 0.000000 0.000000 0.000000 -17.419545 -8.449187 -6.264916 1.775276 8.381419 23.878693 0.582280 -12.869763 -15.245348 0.078329 -1.805087 -4.967283 0.000000 0.000000 0.000000 9.389626 14.448245 -24.759296 -1.733244 -8.286829 23.588610 -0.212958 -3.315805 -10.588105 -0.012564 0.723832 -1.989134 -8.012910 -2.586109 4.382178 -2.122560 -3.753164 1.131731 2.462362 -1.835044 -0.909472 -16.963077 -15.162185 -8.091801 3.052359 -18.694959 25.001046 1.198971 -9.730724 11.428220 0.000000 0.000000 0.000000 24.487059 14.128002 25.146178 26.072366 -37.280068 8.931493 27.796799 3.565321 -39.608232 0.000000 0.000000 0.000000 -7.125000 0.000000 0.000000 -12.756109 72.725588 8.430644 0.000000 0.000000 0.000000 -40.459328 -6.180034 -50.579326 -19.446693 -29.969791 -5.252189 -34.903168 -48.233901 2.283329 0.000000 0.000000 0.000000 7.125000 0.000000 0.000000 -6.734027 32.712237 -2.038827
-1.544930 17.760105 -4.775488 -333.039292 94.080756 -325.963487 0.000000 0.000000 0.000000 -16.867500 -10.122529 -5.745508 1.657483 8.112855 23.057456 0.566423 -13.158659 -15.210749 0.165514 -2.620772 -7.224648 0.000000 0.000000 0.000000 9.585844 13.831611 -26.378327 -1.478479 -7.682741 21.754547 -0.093605 -4.550888 -9.173733 -0.034022 1.126962 -3.098652 -7.765935 -2.390863 4.945283 -2.848734 -3.513840 1.285895 1.593695 -1.697953 -1.148715 -16.710732 -15.970422 -6.796470 3.800894 -20.284309 24.264011 1.265091 -10.392023 11.128095 0.000000 0.000000 0.000000 26.525075 17.337230 29.734886 25.324950 -36.534240 8.482568 28.168686 3.312472 -40.384783 0.000000 0.000000 0.000000 -7.125000 0.000000 0.000000 -13.370052 73.587581 9.088803 0.000000 0.000000 0.000000 -52.537740 -8.979434 -52.319985 -23.208108 -34.314500 -7.255795 -33.839357 -45.239781 2.345808 0.000000 0.000000 0.000000 7.125000 0.000000 0.000000 -5.876178 32.764267 -1.769598
-1.234909 17.761852 -4.510529 -346.512200 98.242941 -338.642960 0.000000 0.000000 0.000000 -15.331164 -12.339046 -5.236422 1.592261 7.959417 22.590991 0.476478 -14.266971 -14.858374 0.142931 -2.424527 -6.681042 0.000000 0.000000 0.000000 10.406216 13.123822 -26.565016 -1.570147 -7.905975 22.429163 0.076354 -7.278785 -8.377305 -0.110242 -2.140903 5.895293 -6.805682 -2.402701 5.348082 -3.159424 -3.489571 1.598981 0.755880 -1.686406 -1.129604 -16.270664 -16.297454 -5.470513 4.139482 -21.061824 23.834878 1.320508 -10.715756 10.791419 0.000000 0.000000 0.000000 26.849332 17.497180 30.241814 26.422455 -37.622648 9.144424 26.833234 0.606747 -39.594391 0.000000 0.000000 0.000000 -7.125000 0.000000 0.000000 -14.202667 72.370221 9.320038 0.000000 0.000000 0.000000 -63.980025 -13.079640 -52.899478 -29.142984 -40.145090 -10.853603 -32.320123 -46.241552 -1.712378 0.000000 0.000000 0.000000 7.125000 0.000000 0.000000 -4.433419 27.944658 -1.843484
-0.950693 17.785364 -4.189044 -348.817317 101.553404 -339.907628 0.000000 0.000000 0.000000 -13.361265 -13.647590 -5.676371 1.568259 7.902081 22.417058 0.448885 -14.196377 -14.576916 0.325780 -3.662274 -10.129071 0.000000 0.000000 0.000000 11.822591 12.205530 -27.840743 -1.917350 -8.691546 24.835125 0.067096 -7.685768 -9.361182 -0.410219 -4.111422 11.390311 -5.845828 -2.046709 5.782907 -2.703661 -3.023014 1.459364 0.692098 -1.450569 -1.573289 -16.456565 -16.528308 -5.058495 3.096689 -21.090415 24.810976 0.990296 -10.832447 10.991005 0.000000 0.000000 0.000000 23.992158 16.235928 28.270153 28.420155 -39.499867 10.389988 21.505043 -4.840324 -34.049275 0.000000 0.000000 0.000000 -7.125000 0.000000 0.000000 -14.680135 65.407693 7.310390 0.000000 0.000000 0.000000 -75.138562 -22.516567 -57.298898 -37.169395 -46.296794 -16.363529 -33.766650 -41.354678 -4.008476 0.000000 0.000000 0.000000 7.125000 0.000000 0.000000 -5.357059 25.159722 -2.582027
-0.656748 17.822690 -3.823566 -351.965230 103.077679 -342.289534 0.000000 0.000000 0.000000 -12.218457 -15.149896 -5.734610 1.611675 8.005505 22.730803 0.377673 -13.364657 -13.521812 0.533653 -4.680802 -13.000327 0.000000 0.000000 0.000000 12.420728 12.568147 -28.386892 -2.179465 -9.230337 26.518522 -0.051850 -6.557781 -10.559110 -0.621543 -5.043666 14.033400 -5.516865 -1.415095 5.508217 -2.548563 -2.132492 1.645443 0.601648 -1.018923 -1.282044 -16.516541 -16.283571 -5.683079 2.479499 -20.410702 26.135761 0.803670 -10.546083 11.482652 0.000000 0.000000 0.000000 19.810100 13.974515 24.476528 29.677315 -40.615135 11.198940 20.704005 -5.471150 -32.229508 0.000000 0.000000 0.000000 -7.125000 0.000000 0.000000 -14.068502 63.421167 6.350769 0.000000 0.000000 0.000000 -82.754047 -36.098023 -59.897048 -46.006060 -51.249974 -23.021307 -35.954806 -36.195542 -6.397120 0.000000 0.000000 0.000000 7.125000 0.000000 0.000000 -6.717849 22.112284 -3.720608
-0.353281 17.879476 -3.432960 -352.799371 104.992290 -342.063441 0.000000 0.000000 0.000000 -9.864913 -16.441530 -6.980569 1.726728 8.271972 23.543326 0.117006 -14.061791 -11.201434 0.779025 -5.634593 -15.727987 0.000000 0.000000 0.000000 14.287504 11.343116 -28.744898 -2.153449 -9.178598 26.355565 -0.132898 -5.839655 -11.365011 -0.896017 -6.032546 16.878985 -4.336317 -0.619977 5.022975 -2.627451 -0.994618 1.556535 -0.212041 -0.456888 -1.183423 -15.240913 -15.706560 -7.231089 2.019461 -19.391894 28.402445 0.465939 -9.939590 12.355411 0.000000 0.000000 0.000000 17.453051 9.263014 19.166838 27.899827 -39.023749 10.060534 19.040898 -4.081523 -30.805482 0.000000 0.000000 0.000000 -7.125000 0.000000 0.000000 -14.870357 61.610044 6.086318 0.000000 0.000000 0.000000 -84.275646 -46.312075 -50.349329 -46.677032 -51.562457 -23.545653 -41.391435 -23.535975 -6.104373 0.000000 0.000000 0.000000 7.125000 0.000000 0.000000 -10.650664 21.914087 -6.008062
-0.055286 17.948559 -3.048024 -353.043938 106.617301 -341.686536 0.000000 0.000000 0.000000 -7.688709 -17.474014 -7.796524 1.848040 8.542048 24.372958 -0.094327 -13.995681 -8.656859 1.039307 -6.483598 -18.194312 0.000000 0.000000 0.000000 16.507675 9.954659 -28.846066 -2.106797 -9.084994 26.061607 -0.151841 -5.723988 -11.599124 -0.793305 -5.685053 15.873333 -2.985429 0.552463 4.866520 -3.140724 0.649983 1.717613 -1.590072 0.366051 -0.956361 -12.593282 -14.370116 -9.988732 2.374747 -17.735657 30.500068 0.287107 -8.766570 13.321936 0.000000 0.000000 0.000000 15.773032 4.458315 11.501310 27.086212 -38.261249 9.552445 20.729538 -1.462821 -30.296178 0.000000 0.000000 0.000000 -7.125000 0.000000 0.000000 -12.617121 61.530695 5.122324 0.000000 0.000000 0.000000 -78.851716 -52.811083 -30.262152 -38.141022 -46.926516 -17.069390 -33.382642 -7.305666 -9.892828 0.000000 0.000000 0.000000 7.125000 0.000000 0.000000 -4.494402 18.203018 -2.875213
0.229185 17.992989 -2.661127 -354.067694 108.744125 -342.467504 0.000000 0.000000 0.000000 -5.569121 -17.905143 -8.787434 1.955757 8.773303 25.088785 -0.376153 -14.741983 -5.332985 1.165309 -6.852199 -19.278404 0.000000 0.000000 0.000000 18.213277 9.823640 -28.712355 -2.217644 -9.305510 26.755615 -0.236567 -6.651801 -13.952884 -0.733528 -5.471671 15.258977 -2.568136 1.263856 5.131945 -2.673997 1.602725 1.821924 -1.402086 0.836395 -0.994202 -11.174668 -11.612171 -13.284448 2.209801 -13.510850 33.046383 0.555757 -6.605736 14.603581 0.000000 0.000000 0.000000 12.473447 -0.250371 3.609631 25.631270 -36.842270 8.665590 21.645700 1.842913 -29.886896 0.000000 0.000000 0.000000 -7.125000 0.000000 0.000000 -11.313095 61.359178 4.539005 0.000000 0.000000 0.000000 -67.440653 -58.023164 -7.018918 -29.220403 -40.214683 -10.903116 -27.445167 8.597317 -11.298941 0.000000 0.000000 0.000000 7.125000 0.000000 0.000000 -0.217973 17.291787 -0.143394
